<svg width="20" height="20" viewBox="0 0 20 20" fill="none" xmlns="http://www.w3.org/2000/svg">
<path d="M3.49258 0.416016C4.31882 0.416016 4.9894 1.08659 4.9894 1.91283V16.881C4.9894 17.7073 4.31882 18.3778 3.49258 18.3778H1.49682C0.670575 18.3778 0 17.7073 0 16.881V1.91283C0 1.08659 0.670575 0.416016 1.49682 0.416016H3.49258ZM9.47985 0.416016C10.3061 0.416016 10.9767 1.08659 10.9767 1.91283V16.881C10.9767 17.7073 10.3061 18.3778 9.47985 18.3778H7.48409C6.65785 18.3778 5.98727 17.7073 5.98727 16.881V1.91283C5.98727 1.08659 6.65785 0.416016 7.48409 0.416016H9.47985ZM16.7454 3.53319L19.9526 16.0256C20.1582 16.8259 19.6762 17.6422 18.8749 17.8478L17.0029 18.3277C16.2016 18.5333 15.3863 18.0513 15.1807 17.25L11.9736 4.75958C11.768 3.95829 12.25 3.14302 13.0513 2.93746L14.9233 2.45548C15.7246 2.25092 16.5398 2.73389 16.7454 3.53319Z" fill="white"/>
</svg>
