<svg width="12" height="18" viewBox="0 0 12 18" fill="none" xmlns="http://www.w3.org/2000/svg">
<path d="M12 6C12 2.68629 9.31371 0 6 0C2.68629 0 0 2.68629 0 6C0 7.18886 0.351429 8.29457 0.947143 9.22714H0.940286C2.96314 12.3943 6 17.1429 6 17.1429L11.0597 9.22714H11.0537C11.6486 8.29457 12 7.18886 12 6ZM6 8.57143C4.57971 8.57143 3.42857 7.42029 3.42857 6C3.42857 4.57971 4.57971 3.42857 6 3.42857C7.42029 3.42857 8.57143 4.57971 8.57143 6C8.57143 7.42029 7.42029 8.57143 6 8.57143Z" fill="#9F9F9F"/>
</svg>
