<svg width="40" height="40" viewBox="0 0 40 40" fill="none" xmlns="http://www.w3.org/2000/svg">
<circle cx="20" cy="20" r="20" fill="#3F3FA6"/>
<path fill-rule="evenodd" clip-rule="evenodd" d="M26.6175 14.0298C26.6175 17.7011 23.6739 20.6449 20 20.6449C16.3274 20.6449 13.3825 17.7011 13.3825 14.0298C13.3825 10.3586 16.3274 7.41602 20 7.41602C23.6739 7.41602 26.6175 10.3586 26.6175 14.0298ZM20 32.416C14.578 32.416 10 31.5347 10 28.1347C10 24.7335 14.6067 23.8835 20 23.8835C25.4233 23.8835 30 24.7647 30 28.1647C30 31.566 25.3932 32.416 20 32.416Z" fill="white"/>
<circle cx="32.3998" cy="32.3998" r="7.6" fill="#96ED88"/>
<path fill-rule="evenodd" clip-rule="evenodd" d="M33.6663 27.333H31.133V31.133L27.333 31.133L27.333 33.6663H31.133V37.4663H33.6663V33.6663H37.4663V31.133L33.6663 31.133V27.333Z" fill="white"/>
</svg>
