<svg width="53" height="72" viewBox="0 0 53 72" fill="none" xmlns="http://www.w3.org/2000/svg">
<circle cx="26.5" cy="20" r="20" fill="#96ED88"/>
<path fill-rule="evenodd" clip-rule="evenodd" d="M33.1175 14.0298C33.1175 17.7011 30.1739 20.6449 26.5 20.6449C22.8274 20.6449 19.8825 17.7011 19.8825 14.0298C19.8825 10.3586 22.8274 7.41602 26.5 7.41602C30.1739 7.41602 33.1175 10.3586 33.1175 14.0298ZM26.5 32.416C21.078 32.416 16.5 31.5347 16.5 28.1347C16.5 24.7335 21.1067 23.8835 26.5 23.8835C31.9233 23.8835 36.5 24.7647 36.5 28.1647C36.5 31.566 31.8932 32.416 26.5 32.416Z" fill="white"/>
<path d="M0.855625 53V44.36H3.47763C3.56963 44.36 3.72563 44.362 3.94563 44.366C4.16963 44.37 4.38363 44.386 4.58763 44.414C5.24363 44.506 5.79163 44.75 6.23163 45.146C6.67163 45.542 7.00163 46.046 7.22163 46.658C7.44163 47.27 7.55163 47.944 7.55163 48.68C7.55163 49.416 7.44163 50.09 7.22163 50.702C7.00163 51.314 6.67163 51.818 6.23163 52.214C5.79163 52.61 5.24363 52.854 4.58763 52.946C4.38763 52.97 4.17363 52.986 3.94563 52.994C3.71763 52.998 3.56163 53 3.47763 53H0.855625ZM1.76763 52.154H3.47763C3.64163 52.154 3.81763 52.15 4.00563 52.142C4.19763 52.13 4.36163 52.11 4.49763 52.082C5.00163 51.994 5.40763 51.79 5.71563 51.47C6.02763 51.15 6.25563 50.75 6.39963 50.27C6.54363 49.786 6.61563 49.256 6.61563 48.68C6.61563 48.1 6.54363 47.568 6.39963 47.084C6.25563 46.6 6.02763 46.2 5.71563 45.884C5.40363 45.568 4.99763 45.366 4.49763 45.278C4.36163 45.25 4.19563 45.232 3.99963 45.224C3.80763 45.212 3.63363 45.206 3.47763 45.206H1.76763V52.154ZM11.6601 53.18C11.0281 53.18 10.4801 53.04 10.0161 52.76C9.55613 52.48 9.19813 52.086 8.94213 51.578C8.68613 51.07 8.55813 50.474 8.55813 49.79C8.55813 49.082 8.68413 48.47 8.93613 47.954C9.18813 47.438 9.54213 47.04 9.99813 46.76C10.4581 46.48 11.0001 46.34 11.6241 46.34C12.2641 46.34 12.8101 46.488 13.2621 46.784C13.7141 47.076 14.0561 47.496 14.2881 48.044C14.5201 48.592 14.6261 49.246 14.6061 50.006H13.7061V49.694C13.6901 48.854 13.5081 48.22 13.1601 47.792C12.8161 47.364 12.3121 47.15 11.6481 47.15C10.9521 47.15 10.4181 47.376 10.0461 47.828C9.67813 48.28 9.49413 48.924 9.49413 49.76C9.49413 50.576 9.67813 51.21 10.0461 51.662C10.4181 52.11 10.9441 52.334 11.6241 52.334C12.0881 52.334 12.4921 52.228 12.8361 52.016C13.1841 51.8 13.4581 51.49 13.6581 51.086L14.4801 51.404C14.2241 51.968 13.8461 52.406 13.3461 52.718C12.8501 53.026 12.2881 53.18 11.6601 53.18ZM9.18213 50.006V49.268H14.1321V50.006H9.18213ZM23.4899 53L23.4959 48.746C23.4959 48.246 23.3559 47.854 23.0759 47.57C22.7999 47.282 22.4479 47.138 22.0199 47.138C21.7759 47.138 21.5379 47.194 21.3059 47.306C21.0739 47.418 20.8819 47.598 20.7299 47.846C20.5819 48.094 20.5079 48.418 20.5079 48.818L19.9859 48.668C19.9739 48.204 20.0639 47.798 20.2559 47.45C20.4519 47.102 20.7199 46.832 21.0599 46.64C21.4039 46.444 21.7919 46.346 22.2239 46.346C22.8759 46.346 23.3979 46.548 23.7899 46.952C24.1819 47.352 24.3779 47.894 24.3779 48.578L24.3719 53H23.4899ZM15.7559 53V46.52H16.5479V48.116H16.6439V53H15.7559ZM19.6319 53L19.6379 48.806C19.6379 48.29 19.4999 47.884 19.2239 47.588C18.9519 47.288 18.5919 47.138 18.1439 47.138C17.6959 47.138 17.3339 47.292 17.0579 47.6C16.7819 47.904 16.6439 48.31 16.6439 48.818L16.1159 48.53C16.1159 48.114 16.2139 47.742 16.4099 47.414C16.6059 47.082 16.8739 46.822 17.2139 46.634C17.5539 46.442 17.9399 46.346 18.3719 46.346C18.7839 46.346 19.1499 46.434 19.4699 46.61C19.7939 46.786 20.0479 47.042 20.2319 47.378C20.4159 47.714 20.5079 48.122 20.5079 48.602L20.5019 53H19.6319ZM27.7878 53.18C27.2998 53.18 26.8898 53.092 26.5578 52.916C26.2298 52.74 25.9838 52.506 25.8198 52.214C25.6558 51.922 25.5738 51.604 25.5738 51.26C25.5738 50.908 25.6438 50.608 25.7838 50.36C25.9278 50.108 26.1218 49.902 26.3658 49.742C26.6138 49.582 26.8998 49.46 27.2238 49.376C27.5518 49.296 27.9138 49.226 28.3098 49.166C28.7098 49.102 29.0998 49.048 29.4798 49.004C29.8638 48.956 30.1998 48.91 30.4878 48.866L30.1758 49.058C30.1878 48.418 30.0638 47.944 29.8038 47.636C29.5438 47.328 29.0918 47.174 28.4478 47.174C28.0038 47.174 27.6278 47.274 27.3198 47.474C27.0158 47.674 26.8018 47.99 26.6777 48.422L25.8198 48.17C25.9678 47.59 26.2658 47.14 26.7138 46.82C27.1618 46.5 27.7438 46.34 28.4598 46.34C29.0518 46.34 29.5538 46.452 29.9658 46.676C30.3818 46.896 30.6758 47.216 30.8478 47.636C30.9278 47.824 30.9798 48.034 31.0038 48.266C31.0278 48.498 31.0398 48.734 31.0398 48.974V53H30.2538V51.374L30.4818 51.47C30.2618 52.026 29.9198 52.45 29.4558 52.742C28.9918 53.034 28.4358 53.18 27.7878 53.18ZM27.8898 52.418C28.3018 52.418 28.6618 52.344 28.9698 52.196C29.2778 52.048 29.5258 51.846 29.7138 51.59C29.9018 51.33 30.0238 51.038 30.0798 50.714C30.1278 50.506 30.1538 50.278 30.1578 50.03C30.1618 49.778 30.1638 49.59 30.1638 49.466L30.4998 49.64C30.1998 49.68 29.8738 49.72 29.5218 49.76C29.1738 49.8 28.8298 49.846 28.4898 49.898C28.1538 49.95 27.8498 50.012 27.5778 50.084C27.3938 50.136 27.2158 50.21 27.0438 50.306C26.8718 50.398 26.7298 50.522 26.6178 50.678C26.5098 50.834 26.4558 51.028 26.4558 51.26C26.4558 51.448 26.5018 51.63 26.5938 51.806C26.6898 51.982 26.8418 52.128 27.0498 52.244C27.2618 52.36 27.5418 52.418 27.8898 52.418ZM37.2817 53V49.694C37.2817 49.334 37.2477 49.004 37.1797 48.704C37.1117 48.4 37.0017 48.136 36.8497 47.912C36.7017 47.684 36.5077 47.508 36.2677 47.384C36.0317 47.26 35.7437 47.198 35.4037 47.198C35.0917 47.198 34.8157 47.252 34.5757 47.36C34.3397 47.468 34.1397 47.624 33.9757 47.828C33.8157 48.028 33.6937 48.272 33.6097 48.56C33.5257 48.848 33.4837 49.176 33.4837 49.544L32.8597 49.406C32.8597 48.742 32.9757 48.184 33.2077 47.732C33.4397 47.28 33.7597 46.938 34.1677 46.706C34.5757 46.474 35.0437 46.358 35.5717 46.358C35.9597 46.358 36.2977 46.418 36.5857 46.538C36.8777 46.658 37.1237 46.82 37.3237 47.024C37.5277 47.228 37.6917 47.462 37.8157 47.726C37.9397 47.986 38.0297 48.264 38.0857 48.56C38.1417 48.852 38.1697 49.144 38.1697 49.436V53H37.2817ZM32.5957 53V46.52H33.3937V48.116H33.4837V53H32.5957ZM42.2056 53.18C41.6016 53.18 41.0856 53.03 40.6576 52.73C40.2296 52.426 39.9016 52.016 39.6736 51.5C39.4456 50.984 39.3316 50.402 39.3316 49.754C39.3316 49.11 39.4436 48.53 39.6676 48.014C39.8956 47.498 40.2216 47.09 40.6456 46.79C41.0696 46.49 41.5776 46.34 42.1696 46.34C42.7776 46.34 43.2896 46.488 43.7056 46.784C44.1216 47.08 44.4356 47.486 44.6476 48.002C44.8636 48.514 44.9716 49.098 44.9716 49.754C44.9716 50.398 44.8656 50.98 44.6536 51.5C44.4416 52.016 44.1296 52.426 43.7176 52.73C43.3056 53.03 42.8016 53.18 42.2056 53.18ZM42.2956 52.358C42.7556 52.358 43.1356 52.246 43.4356 52.022C43.7356 51.798 43.9596 51.49 44.1076 51.098C44.2556 50.702 44.3296 50.254 44.3296 49.754C44.3296 49.246 44.2556 48.798 44.1076 48.41C43.9596 48.018 43.7356 47.712 43.4356 47.492C43.1396 47.272 42.7656 47.162 42.3136 47.162C41.8496 47.162 41.4656 47.276 41.1616 47.504C40.8576 47.732 40.6316 48.042 40.4836 48.434C40.3396 48.826 40.2676 49.266 40.2676 49.754C40.2676 50.246 40.3416 50.69 40.4896 51.086C40.6416 51.478 40.8676 51.788 41.1676 52.016C41.4676 52.244 41.8436 52.358 42.2956 52.358ZM44.3296 53V48.122H44.2336V44.36H45.1216V53H44.3296ZM49.5468 53.18C48.9148 53.18 48.3668 53.04 47.9028 52.76C47.4428 52.48 47.0848 52.086 46.8288 51.578C46.5728 51.07 46.4448 50.474 46.4448 49.79C46.4448 49.082 46.5708 48.47 46.8228 47.954C47.0748 47.438 47.4288 47.04 47.8848 46.76C48.3448 46.48 48.8868 46.34 49.5108 46.34C50.1508 46.34 50.6968 46.488 51.1488 46.784C51.6008 47.076 51.9428 47.496 52.1748 48.044C52.4068 48.592 52.5128 49.246 52.4928 50.006H51.5928V49.694C51.5768 48.854 51.3948 48.22 51.0468 47.792C50.7028 47.364 50.1988 47.15 49.5348 47.15C48.8388 47.15 48.3048 47.376 47.9328 47.828C47.5648 48.28 47.3808 48.924 47.3808 49.76C47.3808 50.576 47.5648 51.21 47.9328 51.662C48.3048 52.11 48.8308 52.334 49.5108 52.334C49.9748 52.334 50.3788 52.228 50.7228 52.016C51.0708 51.8 51.3448 51.49 51.5448 51.086L52.3668 51.404C52.1108 51.968 51.7328 52.406 51.2328 52.718C50.7368 53.026 50.1748 53.18 49.5468 53.18ZM47.0688 50.006V49.268H52.0188V50.006H47.0688ZM10.0605 69.18C9.42852 69.18 8.88052 69.04 8.41652 68.76C7.95652 68.48 7.59852 68.086 7.34252 67.578C7.08652 67.07 6.95852 66.474 6.95852 65.79C6.95852 65.082 7.08452 64.47 7.33652 63.954C7.58852 63.438 7.94252 63.04 8.39852 62.76C8.85852 62.48 9.40052 62.34 10.0245 62.34C10.6645 62.34 11.2105 62.488 11.6625 62.784C12.1145 63.076 12.4565 63.496 12.6885 64.044C12.9205 64.592 13.0265 65.246 13.0065 66.006H12.1065V65.694C12.0905 64.854 11.9085 64.22 11.5605 63.792C11.2165 63.364 10.7125 63.15 10.0485 63.15C9.35252 63.15 8.81852 63.376 8.44652 63.828C8.07852 64.28 7.89452 64.924 7.89452 65.76C7.89452 66.576 8.07852 67.21 8.44652 67.662C8.81852 68.11 9.34452 68.334 10.0245 68.334C10.4885 68.334 10.8925 68.228 11.2365 68.016C11.5845 67.8 11.8585 67.49 12.0585 67.086L12.8805 67.404C12.6245 67.968 12.2465 68.406 11.7465 68.718C11.2505 69.026 10.6885 69.18 10.0605 69.18ZM7.58252 66.006V65.268H12.5325V66.006H7.58252ZM18.8423 69V65.694C18.8423 65.334 18.8083 65.004 18.7403 64.704C18.6723 64.4 18.5623 64.136 18.4103 63.912C18.2623 63.684 18.0683 63.508 17.8283 63.384C17.5923 63.26 17.3043 63.198 16.9643 63.198C16.6523 63.198 16.3763 63.252 16.1363 63.36C15.9003 63.468 15.7003 63.624 15.5363 63.828C15.3763 64.028 15.2543 64.272 15.1703 64.56C15.0863 64.848 15.0443 65.176 15.0443 65.544L14.4203 65.406C14.4203 64.742 14.5363 64.184 14.7683 63.732C15.0003 63.28 15.3203 62.938 15.7283 62.706C16.1363 62.474 16.6043 62.358 17.1323 62.358C17.5203 62.358 17.8583 62.418 18.1463 62.538C18.4383 62.658 18.6843 62.82 18.8843 63.024C19.0883 63.228 19.2523 63.462 19.3763 63.726C19.5003 63.986 19.5903 64.264 19.6463 64.56C19.7023 64.852 19.7303 65.144 19.7303 65.436V69H18.8423ZM14.1563 69V62.52H14.9543V64.116H15.0443V69H14.1563ZM23.0393 69L20.6873 62.52H21.5813L23.4953 67.848L25.3973 62.52H26.3033L23.9513 69H23.0393ZM29.8526 69.18C29.2086 69.18 28.6586 69.034 28.2026 68.742C27.7466 68.45 27.3966 68.046 27.1526 67.53C26.9086 67.014 26.7866 66.422 26.7866 65.754C26.7866 65.074 26.9106 64.478 27.1586 63.966C27.4066 63.454 27.7586 63.056 28.2146 62.772C28.6746 62.484 29.2206 62.34 29.8526 62.34C30.5006 62.34 31.0526 62.486 31.5086 62.778C31.9686 63.066 32.3186 63.468 32.5586 63.984C32.8026 64.496 32.9246 65.086 32.9246 65.754C32.9246 66.434 32.8026 67.032 32.5586 67.548C32.3146 68.06 31.9626 68.46 31.5026 68.748C31.0426 69.036 30.4926 69.18 29.8526 69.18ZM29.8526 68.334C30.5726 68.334 31.1086 68.096 31.4606 67.62C31.8126 67.14 31.9886 66.518 31.9886 65.754C31.9886 64.97 31.8106 64.346 31.4546 63.882C31.1026 63.418 30.5686 63.186 29.8526 63.186C29.3686 63.186 28.9686 63.296 28.6526 63.516C28.3406 63.732 28.1066 64.034 27.9506 64.422C27.7986 64.806 27.7226 65.25 27.7226 65.754C27.7226 66.534 27.9026 67.16 28.2626 67.632C28.6226 68.1 29.1526 68.334 29.8526 68.334ZM34.9378 71.88L36.1918 68.478L36.2098 69.486L33.3718 62.52H34.3078L36.6358 68.346H36.2518L38.3998 62.52H39.2998L35.8198 71.88H34.9378ZM43.558 61.5H42.802L43.516 59.64H44.272L43.558 61.5ZM43.084 69.18C42.452 69.18 41.904 69.04 41.44 68.76C40.98 68.48 40.622 68.086 40.366 67.578C40.11 67.07 39.982 66.474 39.982 65.79C39.982 65.082 40.108 64.47 40.36 63.954C40.612 63.438 40.966 63.04 41.422 62.76C41.882 62.48 42.424 62.34 43.048 62.34C43.688 62.34 44.234 62.488 44.686 62.784C45.138 63.076 45.48 63.496 45.712 64.044C45.944 64.592 46.05 65.246 46.03 66.006H45.13V65.694C45.114 64.854 44.932 64.22 44.584 63.792C44.24 63.364 43.736 63.15 43.072 63.15C42.376 63.15 41.842 63.376 41.47 63.828C41.102 64.28 40.918 64.924 40.918 65.76C40.918 66.576 41.102 67.21 41.47 67.662C41.842 68.11 42.368 68.334 43.048 68.334C43.512 68.334 43.916 68.228 44.26 68.016C44.608 67.8 44.882 67.49 45.082 67.086L45.904 67.404C45.648 67.968 45.27 68.406 44.77 68.718C44.274 69.026 43.712 69.18 43.084 69.18ZM40.606 66.006V65.268H45.556V66.006H40.606Z" fill="#96ED88"/>
</svg>
