<svg width="82" height="72" viewBox="0 0 82 72" fill="none" xmlns="http://www.w3.org/2000/svg">
<circle cx="41" cy="20" r="20" fill="#96ED88"/>
<path d="M34.4926 10.416C35.3188 10.416 35.9894 11.0866 35.9894 11.9128V26.881C35.9894 27.7073 35.3188 28.3778 34.4926 28.3778H32.4968C31.6706 28.3778 31 27.7073 31 26.881V11.9128C31 11.0866 31.6706 10.416 32.4968 10.416H34.4926ZM40.4799 10.416C41.3061 10.416 41.9767 11.0866 41.9767 11.9128V26.881C41.9767 27.7073 41.3061 28.3778 40.4799 28.3778H38.4841C37.6578 28.3778 36.9873 27.7073 36.9873 26.881V11.9128C36.9873 11.0866 37.6578 10.416 38.4841 10.416H40.4799ZM47.7454 13.5332L50.9526 26.0256C51.1582 26.8259 50.6762 27.6422 49.8749 27.8478L48.0029 28.3277C47.2016 28.5333 46.3863 28.0513 46.1807 27.25L42.9736 14.7596C42.768 13.9583 43.25 13.143 44.0513 12.9375L45.9233 12.4555C46.7246 12.2509 47.5398 12.7339 47.7454 13.5332Z" fill="white"/>
<path d="M18.3709 53L21.3469 44.36H22.5169L25.4929 53H24.5749L21.7489 44.852H22.0969L19.2889 53H18.3709ZM19.6969 50.906V50.078H24.1609V50.906H19.6969ZM25.6163 55.88V55.028H25.9823C26.2743 55.028 26.5063 54.952 26.6783 54.8C26.8543 54.652 26.9423 54.402 26.9423 54.05V46.52H27.8183V54.272C27.8183 54.812 27.6883 55.214 27.4283 55.478C27.1723 55.746 26.7783 55.88 26.2463 55.88H25.6163ZM26.9423 45.29V44.3H27.8183V45.29H26.9423ZM32.294 53.18C31.65 53.18 31.1 53.034 30.644 52.742C30.188 52.45 29.838 52.046 29.594 51.53C29.35 51.014 29.228 50.422 29.228 49.754C29.228 49.074 29.352 48.478 29.6 47.966C29.848 47.454 30.2 47.056 30.656 46.772C31.116 46.484 31.662 46.34 32.294 46.34C32.942 46.34 33.494 46.486 33.95 46.778C34.41 47.066 34.76 47.468 35 47.984C35.244 48.496 35.366 49.086 35.366 49.754C35.366 50.434 35.244 51.032 35 51.548C34.756 52.06 34.404 52.46 33.944 52.748C33.484 53.036 32.934 53.18 32.294 53.18ZM32.294 52.334C33.014 52.334 33.55 52.096 33.902 51.62C34.254 51.14 34.43 50.518 34.43 49.754C34.43 48.97 34.252 48.346 33.896 47.882C33.544 47.418 33.01 47.186 32.294 47.186C31.81 47.186 31.41 47.296 31.094 47.516C30.782 47.732 30.548 48.034 30.392 48.422C30.24 48.806 30.164 49.25 30.164 49.754C30.164 50.534 30.344 51.16 30.704 51.632C31.064 52.1 31.594 52.334 32.294 52.334ZM39.1676 53.162C38.7796 53.162 38.4396 53.102 38.1476 52.982C37.8596 52.862 37.6136 52.7 37.4096 52.496C37.2096 52.292 37.0476 52.06 36.9236 51.8C36.7996 51.536 36.7096 51.258 36.6536 50.966C36.5976 50.67 36.5696 50.376 36.5696 50.084V46.52H37.4576V49.826C37.4576 50.182 37.4916 50.512 37.5596 50.816C37.6276 51.12 37.7356 51.386 37.8836 51.614C38.0356 51.838 38.2296 52.012 38.4656 52.136C38.7056 52.26 38.9956 52.322 39.3356 52.322C39.6476 52.322 39.9216 52.268 40.1576 52.16C40.3976 52.052 40.5976 51.898 40.7576 51.698C40.9216 51.494 41.0456 51.248 41.1296 50.96C41.2136 50.668 41.2556 50.34 41.2556 49.976L41.8796 50.114C41.8796 50.778 41.7636 51.336 41.5316 51.788C41.2996 52.24 40.9796 52.582 40.5716 52.814C40.1636 53.046 39.6956 53.162 39.1676 53.162ZM41.3456 53V51.404H41.2556V46.52H42.1376V53H41.3456ZM47.3426 53C46.9786 53.076 46.6186 53.106 46.2626 53.09C45.9106 53.074 45.5946 52.998 45.3146 52.862C45.0386 52.726 44.8286 52.514 44.6846 52.226C44.5686 51.986 44.5046 51.744 44.4926 51.5C44.4846 51.252 44.4806 50.97 44.4806 50.654V44.72H45.3566V50.618C45.3566 50.89 45.3586 51.118 45.3626 51.302C45.3706 51.482 45.4126 51.642 45.4886 51.782C45.6326 52.05 45.8606 52.21 46.1726 52.262C46.4886 52.314 46.8786 52.302 47.3426 52.226V53ZM43.0946 47.276V46.52H47.3426V47.276H43.0946ZM51.8353 45.5H51.0793L51.7933 43.64H52.5493L51.8353 45.5ZM51.3613 53.18C50.7293 53.18 50.1813 53.04 49.7173 52.76C49.2573 52.48 48.8993 52.086 48.6433 51.578C48.3873 51.07 48.2593 50.474 48.2593 49.79C48.2593 49.082 48.3853 48.47 48.6373 47.954C48.8893 47.438 49.2433 47.04 49.6993 46.76C50.1593 46.48 50.7013 46.34 51.3253 46.34C51.9653 46.34 52.5113 46.488 52.9633 46.784C53.4153 47.076 53.7573 47.496 53.9893 48.044C54.2213 48.592 54.3273 49.246 54.3073 50.006H53.4073V49.694C53.3913 48.854 53.2093 48.22 52.8613 47.792C52.5173 47.364 52.0133 47.15 51.3493 47.15C50.6533 47.15 50.1193 47.376 49.7473 47.828C49.3793 48.28 49.1953 48.924 49.1953 49.76C49.1953 50.576 49.3793 51.21 49.7473 51.662C50.1193 52.11 50.6453 52.334 51.3253 52.334C51.7893 52.334 52.1933 52.228 52.5373 52.016C52.8853 51.8 53.1593 51.49 53.3593 51.086L54.1813 51.404C53.9253 51.968 53.5473 52.406 53.0473 52.718C52.5513 53.026 51.9893 53.18 51.3613 53.18ZM48.8833 50.006V49.268H53.8333V50.006H48.8833ZM60.2552 45.5L59.5352 43.64H60.2912L61.0112 45.5H60.2552ZM59.8952 53.18C59.4072 53.18 58.9972 53.092 58.6652 52.916C58.3372 52.74 58.0912 52.506 57.9272 52.214C57.7632 51.922 57.6812 51.604 57.6812 51.26C57.6812 50.908 57.7512 50.608 57.8912 50.36C58.0352 50.108 58.2292 49.902 58.4732 49.742C58.7212 49.582 59.0072 49.46 59.3312 49.376C59.6592 49.296 60.0212 49.226 60.4172 49.166C60.8172 49.102 61.2072 49.048 61.5872 49.004C61.9712 48.956 62.3072 48.91 62.5952 48.866L62.2832 49.058C62.2952 48.418 62.1712 47.944 61.9112 47.636C61.6512 47.328 61.1992 47.174 60.5552 47.174C60.1112 47.174 59.7352 47.274 59.4272 47.474C59.1232 47.674 58.9092 47.99 58.7852 48.422L57.9272 48.17C58.0752 47.59 58.3732 47.14 58.8212 46.82C59.2692 46.5 59.8512 46.34 60.5672 46.34C61.1592 46.34 61.6612 46.452 62.0732 46.676C62.4892 46.896 62.7832 47.216 62.9552 47.636C63.0352 47.824 63.0872 48.034 63.1112 48.266C63.1352 48.498 63.1472 48.734 63.1472 48.974V53H62.3612V51.374L62.5892 51.47C62.3692 52.026 62.0272 52.45 61.5632 52.742C61.0992 53.034 60.5432 53.18 59.8952 53.18ZM59.9972 52.418C60.4092 52.418 60.7692 52.344 61.0772 52.196C61.3852 52.048 61.6332 51.846 61.8212 51.59C62.0092 51.33 62.1312 51.038 62.1872 50.714C62.2352 50.506 62.2612 50.278 62.2652 50.03C62.2692 49.778 62.2712 49.59 62.2712 49.466L62.6072 49.64C62.3072 49.68 61.9812 49.72 61.6292 49.76C61.2812 49.8 60.9372 49.846 60.5972 49.898C60.2612 49.95 59.9572 50.012 59.6852 50.084C59.5012 50.136 59.3232 50.21 59.1512 50.306C58.9792 50.398 58.8372 50.522 58.7252 50.678C58.6172 50.834 58.5632 51.028 58.5632 51.26C58.5632 51.448 58.6092 51.63 58.7012 51.806C58.7972 51.982 58.9492 52.128 59.1572 52.244C59.3692 52.36 59.6492 52.418 59.9972 52.418ZM1.06742 69V60.18H1.94942V69H1.06742ZM5.6022 69.18C5.1142 69.18 4.7042 69.092 4.3722 68.916C4.0442 68.74 3.7982 68.506 3.6342 68.214C3.4702 67.922 3.3882 67.604 3.3882 67.26C3.3882 66.908 3.4582 66.608 3.5982 66.36C3.7422 66.108 3.9362 65.902 4.1802 65.742C4.4282 65.582 4.7142 65.46 5.0382 65.376C5.3662 65.296 5.7282 65.226 6.1242 65.166C6.5242 65.102 6.9142 65.048 7.2942 65.004C7.6782 64.956 8.0142 64.91 8.3022 64.866L7.9902 65.058C8.0022 64.418 7.8782 63.944 7.6182 63.636C7.3582 63.328 6.9062 63.174 6.2622 63.174C5.8182 63.174 5.4422 63.274 5.1342 63.474C4.8302 63.674 4.6162 63.99 4.4922 64.422L3.6342 64.17C3.7822 63.59 4.0802 63.14 4.5282 62.82C4.9762 62.5 5.5582 62.34 6.2742 62.34C6.8662 62.34 7.3682 62.452 7.7802 62.676C8.1962 62.896 8.4902 63.216 8.6622 63.636C8.7422 63.824 8.7942 64.034 8.8182 64.266C8.8422 64.498 8.8542 64.734 8.8542 64.974V69H8.0682V67.374L8.2962 67.47C8.0762 68.026 7.7342 68.45 7.2702 68.742C6.8062 69.034 6.2502 69.18 5.6022 69.18ZM5.7042 68.418C6.1162 68.418 6.4762 68.344 6.7842 68.196C7.0922 68.048 7.3402 67.846 7.5282 67.59C7.7162 67.33 7.8382 67.038 7.8942 66.714C7.9422 66.506 7.9682 66.278 7.9722 66.03C7.9762 65.778 7.9782 65.59 7.9782 65.466L8.3142 65.64C8.0142 65.68 7.6882 65.72 7.3362 65.76C6.9882 65.8 6.6442 65.846 6.3042 65.898C5.9682 65.95 5.6642 66.012 5.3922 66.084C5.2082 66.136 5.0302 66.21 4.8582 66.306C4.6862 66.398 4.5442 66.522 4.4322 66.678C4.3242 66.834 4.2702 67.028 4.2702 67.26C4.2702 67.448 4.3162 67.63 4.4082 67.806C4.5042 67.982 4.6562 68.128 4.8642 68.244C5.0762 68.36 5.3562 68.418 5.7042 68.418ZM15.7285 69.18C15.1325 69.18 14.6285 69.03 14.2165 68.73C13.8045 68.426 13.4925 68.016 13.2805 67.5C13.0685 66.98 12.9625 66.398 12.9625 65.754C12.9625 65.098 13.0685 64.514 13.2805 64.002C13.4965 63.486 13.8125 63.08 14.2285 62.784C14.6445 62.488 15.1565 62.34 15.7645 62.34C16.3565 62.34 16.8645 62.49 17.2885 62.79C17.7125 63.09 18.0365 63.498 18.2605 64.014C18.4885 64.53 18.6025 65.11 18.6025 65.754C18.6025 66.402 18.4885 66.984 18.2605 67.5C18.0325 68.016 17.7045 68.426 17.2765 68.73C16.8485 69.03 16.3325 69.18 15.7285 69.18ZM12.8125 69V60.36H13.7005V64.122H13.6045V69H12.8125ZM15.6385 68.358C16.0905 68.358 16.4665 68.244 16.7665 68.016C17.0665 67.788 17.2905 67.478 17.4385 67.086C17.5905 66.69 17.6665 66.246 17.6665 65.754C17.6665 65.266 17.5925 64.826 17.4445 64.434C17.2965 64.042 17.0705 63.732 16.7665 63.504C16.4665 63.276 16.0845 63.162 15.6205 63.162C15.1685 63.162 14.7925 63.272 14.4925 63.492C14.1965 63.712 13.9745 64.018 13.8265 64.41C13.6785 64.798 13.6045 65.246 13.6045 65.754C13.6045 66.254 13.6785 66.702 13.8265 67.098C13.9745 67.49 14.1985 67.798 14.4985 68.022C14.7985 68.246 15.1785 68.358 15.6385 68.358ZM20.0401 61.29V60.3H20.9221V61.29H20.0401ZM20.0401 69V62.52H20.9221V69H20.0401ZM25.6309 69.18C25.0349 69.18 24.5309 69.03 24.1189 68.73C23.7069 68.426 23.3949 68.016 23.1829 67.5C22.9709 66.98 22.8649 66.398 22.8649 65.754C22.8649 65.098 22.9709 64.514 23.1829 64.002C23.3989 63.486 23.7149 63.08 24.1309 62.784C24.5469 62.488 25.0589 62.34 25.6669 62.34C26.2589 62.34 26.7669 62.49 27.1909 62.79C27.6149 63.09 27.9389 63.498 28.1629 64.014C28.3909 64.53 28.5049 65.11 28.5049 65.754C28.5049 66.402 28.3909 66.984 28.1629 67.5C27.9349 68.016 27.6069 68.426 27.1789 68.73C26.7509 69.03 26.2349 69.18 25.6309 69.18ZM22.7149 69V60.36H23.6029V64.122H23.5069V69H22.7149ZM25.5409 68.358C25.9929 68.358 26.3689 68.244 26.6689 68.016C26.9689 67.788 27.1929 67.478 27.3409 67.086C27.4929 66.69 27.5689 66.246 27.5689 65.754C27.5689 65.266 27.4949 64.826 27.3469 64.434C27.1989 64.042 26.9729 63.732 26.6689 63.504C26.3689 63.276 25.9869 63.162 25.5229 63.162C25.0709 63.162 24.6949 63.272 24.3949 63.492C24.0989 63.712 23.8769 64.018 23.7289 64.41C23.5809 64.798 23.5069 65.246 23.5069 65.754C23.5069 66.254 23.5809 66.702 23.7289 67.098C23.8769 67.49 24.1009 67.798 24.4009 68.022C24.7009 68.246 25.0809 68.358 25.5409 68.358ZM29.9424 69V60.18H30.8244V69H29.9424ZM32.7432 61.29V60.3H33.6252V61.29H32.7432ZM32.7432 69V62.52H33.6252V69H32.7432ZM38.13 69.18C37.486 69.18 36.936 69.034 36.48 68.742C36.024 68.45 35.674 68.046 35.43 67.53C35.186 67.014 35.064 66.422 35.064 65.754C35.064 65.074 35.188 64.478 35.436 63.966C35.684 63.454 36.036 63.056 36.492 62.772C36.952 62.484 37.498 62.34 38.13 62.34C38.778 62.34 39.33 62.486 39.786 62.778C40.246 63.066 40.596 63.468 40.836 63.984C41.08 64.496 41.202 65.086 41.202 65.754C41.202 66.434 41.08 67.032 40.836 67.548C40.592 68.06 40.24 68.46 39.78 68.748C39.32 69.036 38.77 69.18 38.13 69.18ZM38.13 68.334C38.85 68.334 39.386 68.096 39.738 67.62C40.09 67.14 40.266 66.518 40.266 65.754C40.266 64.97 40.088 64.346 39.732 63.882C39.38 63.418 38.846 63.186 38.13 63.186C37.646 63.186 37.246 63.296 36.93 63.516C36.618 63.732 36.384 64.034 36.228 64.422C36.076 64.806 36 65.25 36 65.754C36 66.534 36.18 67.16 36.54 67.632C36.9 68.1 37.43 68.334 38.13 68.334ZM46.0535 69C45.6895 69.076 45.3295 69.106 44.9735 69.09C44.6215 69.074 44.3055 68.998 44.0255 68.862C43.7495 68.726 43.5395 68.514 43.3955 68.226C43.2795 67.986 43.2155 67.744 43.2035 67.5C43.1955 67.252 43.1915 66.97 43.1915 66.654V60.72H44.0675V66.618C44.0675 66.89 44.0695 67.118 44.0735 67.302C44.0815 67.482 44.1235 67.642 44.1995 67.782C44.3435 68.05 44.5715 68.21 44.8835 68.262C45.1995 68.314 45.5895 68.302 46.0535 68.226V69ZM41.8055 63.276V62.52H46.0535V63.276H41.8055ZM52.0102 69V65.694C52.0102 65.334 51.9762 65.004 51.9082 64.704C51.8402 64.4 51.7302 64.136 51.5782 63.912C51.4302 63.684 51.2362 63.508 50.9962 63.384C50.7602 63.26 50.4722 63.198 50.1322 63.198C49.8202 63.198 49.5442 63.252 49.3042 63.36C49.0682 63.468 48.8682 63.624 48.7042 63.828C48.5442 64.028 48.4222 64.272 48.3382 64.56C48.2542 64.848 48.2122 65.176 48.2122 65.544L47.5882 65.406C47.5882 64.742 47.7042 64.184 47.9362 63.732C48.1682 63.28 48.4882 62.938 48.8962 62.706C49.3042 62.474 49.7722 62.358 50.3002 62.358C50.6882 62.358 51.0262 62.418 51.3142 62.538C51.6062 62.658 51.8522 62.82 52.0522 63.024C52.2562 63.228 52.4202 63.462 52.5442 63.726C52.6682 63.986 52.7582 64.264 52.8142 64.56C52.8702 64.852 52.8982 65.144 52.8982 65.436V69H52.0102ZM47.3242 69V60.36H48.1222V65.238H48.2122V69H47.3242ZM56.8672 61.5L56.1532 59.64H56.9092L57.6232 61.5H56.8672ZM57.1972 69.18C56.5652 69.18 56.0172 69.04 55.5532 68.76C55.0932 68.48 54.7352 68.086 54.4792 67.578C54.2232 67.07 54.0952 66.474 54.0952 65.79C54.0952 65.082 54.2212 64.47 54.4732 63.954C54.7252 63.438 55.0792 63.04 55.5352 62.76C55.9952 62.48 56.5372 62.34 57.1612 62.34C57.8012 62.34 58.3472 62.488 58.7992 62.784C59.2512 63.076 59.5932 63.496 59.8252 64.044C60.0572 64.592 60.1632 65.246 60.1432 66.006H59.2432V65.694C59.2272 64.854 59.0452 64.22 58.6972 63.792C58.3532 63.364 57.8492 63.15 57.1852 63.15C56.4892 63.15 55.9552 63.376 55.5832 63.828C55.2152 64.28 55.0312 64.924 55.0312 65.76C55.0312 66.576 55.2152 67.21 55.5832 67.662C55.9552 68.11 56.4812 68.334 57.1612 68.334C57.6252 68.334 58.0292 68.228 58.3732 68.016C58.7212 67.8 58.9952 67.49 59.1952 67.086L60.0172 67.404C59.7612 67.968 59.3832 68.406 58.8832 68.718C58.3872 69.026 57.8252 69.18 57.1972 69.18ZM54.7192 66.006V65.268H59.6692V66.006H54.7192ZM63.9888 69.18C63.3848 69.18 62.8688 69.03 62.4408 68.73C62.0128 68.426 61.6848 68.016 61.4568 67.5C61.2288 66.984 61.1148 66.402 61.1148 65.754C61.1148 65.11 61.2268 64.53 61.4508 64.014C61.6788 63.498 62.0048 63.09 62.4288 62.79C62.8528 62.49 63.3608 62.34 63.9528 62.34C64.5608 62.34 65.0728 62.488 65.4888 62.784C65.9048 63.08 66.2188 63.486 66.4308 64.002C66.6468 64.514 66.7548 65.098 66.7548 65.754C66.7548 66.398 66.6488 66.98 66.4368 67.5C66.2248 68.016 65.9128 68.426 65.5008 68.73C65.0888 69.03 64.5848 69.18 63.9888 69.18ZM64.0788 68.358C64.5388 68.358 64.9188 68.246 65.2188 68.022C65.5188 67.798 65.7428 67.49 65.8908 67.098C66.0388 66.702 66.1128 66.254 66.1128 65.754C66.1128 65.246 66.0388 64.798 65.8908 64.41C65.7428 64.018 65.5188 63.712 65.2188 63.492C64.9228 63.272 64.5488 63.162 64.0968 63.162C63.6328 63.162 63.2488 63.276 62.9448 63.504C62.6408 63.732 62.4148 64.042 62.2668 64.434C62.1228 64.826 62.0508 65.266 62.0508 65.754C62.0508 66.246 62.1248 66.69 62.2728 67.086C62.4248 67.478 62.6508 67.788 62.9508 68.016C63.2508 68.244 63.6268 68.358 64.0788 68.358ZM66.0168 71.88V67.398H66.1128V62.52H66.9048V71.88H66.0168ZM71.066 69.162C70.678 69.162 70.338 69.102 70.046 68.982C69.758 68.862 69.512 68.7 69.308 68.496C69.108 68.292 68.946 68.06 68.822 67.8C68.698 67.536 68.608 67.258 68.552 66.966C68.496 66.67 68.468 66.376 68.468 66.084V62.52H69.356V65.826C69.356 66.182 69.39 66.512 69.458 66.816C69.526 67.12 69.634 67.386 69.782 67.614C69.934 67.838 70.128 68.012 70.364 68.136C70.604 68.26 70.894 68.322 71.234 68.322C71.546 68.322 71.82 68.268 72.056 68.16C72.296 68.052 72.496 67.898 72.656 67.698C72.82 67.494 72.944 67.248 73.028 66.96C73.112 66.668 73.154 66.34 73.154 65.976L73.778 66.114C73.778 66.778 73.662 67.336 73.43 67.788C73.198 68.24 72.878 68.582 72.47 68.814C72.062 69.046 71.594 69.162 71.066 69.162ZM73.244 69V67.404H73.154V62.52H74.036V69H73.244ZM78.455 69.18C77.823 69.18 77.275 69.04 76.811 68.76C76.351 68.48 75.993 68.086 75.737 67.578C75.481 67.07 75.353 66.474 75.353 65.79C75.353 65.082 75.479 64.47 75.731 63.954C75.983 63.438 76.337 63.04 76.793 62.76C77.253 62.48 77.795 62.34 78.419 62.34C79.059 62.34 79.605 62.488 80.057 62.784C80.509 63.076 80.851 63.496 81.083 64.044C81.315 64.592 81.421 65.246 81.401 66.006H80.501V65.694C80.485 64.854 80.303 64.22 79.955 63.792C79.611 63.364 79.107 63.15 78.443 63.15C77.747 63.15 77.213 63.376 76.841 63.828C76.473 64.28 76.289 64.924 76.289 65.76C76.289 66.576 76.473 67.21 76.841 67.662C77.213 68.11 77.739 68.334 78.419 68.334C78.883 68.334 79.287 68.228 79.631 68.016C79.979 67.8 80.253 67.49 80.453 67.086L81.275 67.404C81.019 67.968 80.641 68.406 80.141 68.718C79.645 69.026 79.083 69.18 78.455 69.18ZM75.977 66.006V65.268H80.927V66.006H75.977Z" fill="#96ED88"/>
</svg>
