<svg width="40" height="40" viewBox="0 0 40 40" fill="none" xmlns="http://www.w3.org/2000/svg">
<circle cx="20" cy="20" r="20" fill="#3F3FA6"/>
<path d="M13.4926 10.416C14.3188 10.416 14.9894 11.0866 14.9894 11.9128V26.881C14.9894 27.7073 14.3188 28.3778 13.4926 28.3778H11.4968C10.6706 28.3778 10 27.7073 10 26.881V11.9128C10 11.0866 10.6706 10.416 11.4968 10.416H13.4926ZM19.4799 10.416C20.3061 10.416 20.9767 11.0866 20.9767 11.9128V26.881C20.9767 27.7073 20.3061 28.3778 19.4799 28.3778H17.4841C16.6578 28.3778 15.9873 27.7073 15.9873 26.881V11.9128C15.9873 11.0866 16.6578 10.416 17.4841 10.416H19.4799ZM26.7454 13.5332L29.9526 26.0256C30.1582 26.8259 29.6762 27.6422 28.8749 27.8478L27.0029 28.3277C26.2016 28.5333 25.3863 28.0513 25.1807 27.25L21.9736 14.7596C21.768 13.9583 22.25 13.143 23.0513 12.9375L24.9233 12.4555C25.7246 12.2509 26.5398 12.7339 26.7454 13.5332Z" fill="white"/>
<circle cx="32.3998" cy="32.3998" r="7.6" fill="#96ED88"/>
<path fill-rule="evenodd" clip-rule="evenodd" d="M33.6663 27.333H31.133V31.133L27.333 31.133L27.333 33.6663H31.133V37.4663H33.6663V33.6663H37.4663V31.133L33.6663 31.133V27.333Z" fill="white"/>
</svg>
