<svg width="53" height="88" viewBox="0 0 53 88" fill="none" xmlns="http://www.w3.org/2000/svg">
<circle cx="26.5" cy="20" r="20" fill="#96ED88"/>
<path d="M34.5 10H18.5C17.397 10 16.5 10.894 16.5 11.992V24.008C16.5 25.106 17.397 26 18.5 26H21.5V30L27.851 26H34.5C35.603 26 36.5 25.106 36.5 24.008V11.992C36.5 10.894 35.603 10 34.5 10Z" fill="white"/>
<path d="M0.855625 53V44.36H3.47763C3.56963 44.36 3.72563 44.362 3.94563 44.366C4.16963 44.37 4.38363 44.386 4.58763 44.414C5.24363 44.506 5.79163 44.75 6.23163 45.146C6.67163 45.542 7.00163 46.046 7.22163 46.658C7.44163 47.27 7.55163 47.944 7.55163 48.68C7.55163 49.416 7.44163 50.09 7.22163 50.702C7.00163 51.314 6.67163 51.818 6.23163 52.214C5.79163 52.61 5.24363 52.854 4.58763 52.946C4.38763 52.97 4.17363 52.986 3.94563 52.994C3.71763 52.998 3.56163 53 3.47763 53H0.855625ZM1.76763 52.154H3.47763C3.64163 52.154 3.81763 52.15 4.00563 52.142C4.19763 52.13 4.36163 52.11 4.49763 52.082C5.00163 51.994 5.40763 51.79 5.71563 51.47C6.02763 51.15 6.25563 50.75 6.39963 50.27C6.54363 49.786 6.61563 49.256 6.61563 48.68C6.61563 48.1 6.54363 47.568 6.39963 47.084C6.25563 46.6 6.02763 46.2 5.71563 45.884C5.40363 45.568 4.99763 45.366 4.49763 45.278C4.36163 45.25 4.19563 45.232 3.99963 45.224C3.80763 45.212 3.63363 45.206 3.47763 45.206H1.76763V52.154ZM11.6601 53.18C11.0281 53.18 10.4801 53.04 10.0161 52.76C9.55613 52.48 9.19813 52.086 8.94213 51.578C8.68613 51.07 8.55813 50.474 8.55813 49.79C8.55813 49.082 8.68413 48.47 8.93613 47.954C9.18813 47.438 9.54213 47.04 9.99813 46.76C10.4581 46.48 11.0001 46.34 11.6241 46.34C12.2641 46.34 12.8101 46.488 13.2621 46.784C13.7141 47.076 14.0561 47.496 14.2881 48.044C14.5201 48.592 14.6261 49.246 14.6061 50.006H13.7061V49.694C13.6901 48.854 13.5081 48.22 13.1601 47.792C12.8161 47.364 12.3121 47.15 11.6481 47.15C10.9521 47.15 10.4181 47.376 10.0461 47.828C9.67813 48.28 9.49413 48.924 9.49413 49.76C9.49413 50.576 9.67813 51.21 10.0461 51.662C10.4181 52.11 10.9441 52.334 11.6241 52.334C12.0881 52.334 12.4921 52.228 12.8361 52.016C13.1841 51.8 13.4581 51.49 13.6581 51.086L14.4801 51.404C14.2241 51.968 13.8461 52.406 13.3461 52.718C12.8501 53.026 12.2881 53.18 11.6601 53.18ZM9.18213 50.006V49.268H14.1321V50.006H9.18213ZM23.4899 53L23.4959 48.746C23.4959 48.246 23.3559 47.854 23.0759 47.57C22.7999 47.282 22.4479 47.138 22.0199 47.138C21.7759 47.138 21.5379 47.194 21.3059 47.306C21.0739 47.418 20.8819 47.598 20.7299 47.846C20.5819 48.094 20.5079 48.418 20.5079 48.818L19.9859 48.668C19.9739 48.204 20.0639 47.798 20.2559 47.45C20.4519 47.102 20.7199 46.832 21.0599 46.64C21.4039 46.444 21.7919 46.346 22.2239 46.346C22.8759 46.346 23.3979 46.548 23.7899 46.952C24.1819 47.352 24.3779 47.894 24.3779 48.578L24.3719 53H23.4899ZM15.7559 53V46.52H16.5479V48.116H16.6439V53H15.7559ZM19.6319 53L19.6379 48.806C19.6379 48.29 19.4999 47.884 19.2239 47.588C18.9519 47.288 18.5919 47.138 18.1439 47.138C17.6959 47.138 17.3339 47.292 17.0579 47.6C16.7819 47.904 16.6439 48.31 16.6439 48.818L16.1159 48.53C16.1159 48.114 16.2139 47.742 16.4099 47.414C16.6059 47.082 16.8739 46.822 17.2139 46.634C17.5539 46.442 17.9399 46.346 18.3719 46.346C18.7839 46.346 19.1499 46.434 19.4699 46.61C19.7939 46.786 20.0479 47.042 20.2319 47.378C20.4159 47.714 20.5079 48.122 20.5079 48.602L20.5019 53H19.6319ZM27.7878 53.18C27.2998 53.18 26.8898 53.092 26.5578 52.916C26.2298 52.74 25.9838 52.506 25.8198 52.214C25.6558 51.922 25.5738 51.604 25.5738 51.26C25.5738 50.908 25.6438 50.608 25.7838 50.36C25.9278 50.108 26.1218 49.902 26.3658 49.742C26.6138 49.582 26.8998 49.46 27.2238 49.376C27.5518 49.296 27.9138 49.226 28.3098 49.166C28.7098 49.102 29.0998 49.048 29.4798 49.004C29.8638 48.956 30.1998 48.91 30.4878 48.866L30.1758 49.058C30.1878 48.418 30.0638 47.944 29.8038 47.636C29.5438 47.328 29.0918 47.174 28.4478 47.174C28.0038 47.174 27.6278 47.274 27.3198 47.474C27.0158 47.674 26.8018 47.99 26.6777 48.422L25.8198 48.17C25.9678 47.59 26.2658 47.14 26.7138 46.82C27.1618 46.5 27.7438 46.34 28.4598 46.34C29.0518 46.34 29.5538 46.452 29.9658 46.676C30.3818 46.896 30.6758 47.216 30.8478 47.636C30.9278 47.824 30.9798 48.034 31.0038 48.266C31.0278 48.498 31.0398 48.734 31.0398 48.974V53H30.2538V51.374L30.4818 51.47C30.2618 52.026 29.9198 52.45 29.4558 52.742C28.9918 53.034 28.4358 53.18 27.7878 53.18ZM27.8898 52.418C28.3018 52.418 28.6618 52.344 28.9698 52.196C29.2778 52.048 29.5258 51.846 29.7138 51.59C29.9018 51.33 30.0238 51.038 30.0798 50.714C30.1278 50.506 30.1538 50.278 30.1578 50.03C30.1618 49.778 30.1638 49.59 30.1638 49.466L30.4998 49.64C30.1998 49.68 29.8738 49.72 29.5218 49.76C29.1738 49.8 28.8298 49.846 28.4898 49.898C28.1538 49.95 27.8498 50.012 27.5778 50.084C27.3938 50.136 27.2158 50.21 27.0438 50.306C26.8718 50.398 26.7298 50.522 26.6178 50.678C26.5098 50.834 26.4558 51.028 26.4558 51.26C26.4558 51.448 26.5018 51.63 26.5938 51.806C26.6898 51.982 26.8418 52.128 27.0498 52.244C27.2618 52.36 27.5418 52.418 27.8898 52.418ZM37.2817 53V49.694C37.2817 49.334 37.2477 49.004 37.1797 48.704C37.1117 48.4 37.0017 48.136 36.8497 47.912C36.7017 47.684 36.5077 47.508 36.2677 47.384C36.0317 47.26 35.7437 47.198 35.4037 47.198C35.0917 47.198 34.8157 47.252 34.5757 47.36C34.3397 47.468 34.1397 47.624 33.9757 47.828C33.8157 48.028 33.6937 48.272 33.6097 48.56C33.5257 48.848 33.4837 49.176 33.4837 49.544L32.8597 49.406C32.8597 48.742 32.9757 48.184 33.2077 47.732C33.4397 47.28 33.7597 46.938 34.1677 46.706C34.5757 46.474 35.0437 46.358 35.5717 46.358C35.9597 46.358 36.2977 46.418 36.5857 46.538C36.8777 46.658 37.1237 46.82 37.3237 47.024C37.5277 47.228 37.6917 47.462 37.8157 47.726C37.9397 47.986 38.0297 48.264 38.0857 48.56C38.1417 48.852 38.1697 49.144 38.1697 49.436V53H37.2817ZM32.5957 53V46.52H33.3937V48.116H33.4837V53H32.5957ZM42.2056 53.18C41.6016 53.18 41.0856 53.03 40.6576 52.73C40.2296 52.426 39.9016 52.016 39.6736 51.5C39.4456 50.984 39.3316 50.402 39.3316 49.754C39.3316 49.11 39.4436 48.53 39.6676 48.014C39.8956 47.498 40.2216 47.09 40.6456 46.79C41.0696 46.49 41.5776 46.34 42.1696 46.34C42.7776 46.34 43.2896 46.488 43.7056 46.784C44.1216 47.08 44.4356 47.486 44.6476 48.002C44.8636 48.514 44.9716 49.098 44.9716 49.754C44.9716 50.398 44.8656 50.98 44.6536 51.5C44.4416 52.016 44.1296 52.426 43.7176 52.73C43.3056 53.03 42.8016 53.18 42.2056 53.18ZM42.2956 52.358C42.7556 52.358 43.1356 52.246 43.4356 52.022C43.7356 51.798 43.9596 51.49 44.1076 51.098C44.2556 50.702 44.3296 50.254 44.3296 49.754C44.3296 49.246 44.2556 48.798 44.1076 48.41C43.9596 48.018 43.7356 47.712 43.4356 47.492C43.1396 47.272 42.7656 47.162 42.3136 47.162C41.8496 47.162 41.4656 47.276 41.1616 47.504C40.8576 47.732 40.6316 48.042 40.4836 48.434C40.3396 48.826 40.2676 49.266 40.2676 49.754C40.2676 50.246 40.3416 50.69 40.4896 51.086C40.6416 51.478 40.8676 51.788 41.1676 52.016C41.4676 52.244 41.8436 52.358 42.2956 52.358ZM44.3296 53V48.122H44.2336V44.36H45.1216V53H44.3296ZM49.5468 53.18C48.9148 53.18 48.3668 53.04 47.9028 52.76C47.4428 52.48 47.0848 52.086 46.8288 51.578C46.5728 51.07 46.4448 50.474 46.4448 49.79C46.4448 49.082 46.5708 48.47 46.8228 47.954C47.0748 47.438 47.4288 47.04 47.8848 46.76C48.3448 46.48 48.8868 46.34 49.5108 46.34C50.1508 46.34 50.6968 46.488 51.1488 46.784C51.6008 47.076 51.9428 47.496 52.1748 48.044C52.4068 48.592 52.5128 49.246 52.4928 50.006H51.5928V49.694C51.5768 48.854 51.3948 48.22 51.0468 47.792C50.7028 47.364 50.1988 47.15 49.5348 47.15C48.8388 47.15 48.3048 47.376 47.9328 47.828C47.5648 48.28 47.3808 48.924 47.3808 49.76C47.3808 50.576 47.5648 51.21 47.9328 51.662C48.3048 52.11 48.8308 52.334 49.5108 52.334C49.9748 52.334 50.3788 52.228 50.7228 52.016C51.0708 51.8 51.3448 51.49 51.5448 51.086L52.3668 51.404C52.1108 51.968 51.7328 52.406 51.2328 52.718C50.7368 53.026 50.1748 53.18 49.5468 53.18ZM47.0688 50.006V49.268H52.0188V50.006H47.0688ZM5.83642 69.18C5.23242 69.18 4.71642 69.03 4.28842 68.73C3.86042 68.426 3.53242 68.016 3.30442 67.5C3.07642 66.984 2.96242 66.402 2.96242 65.754C2.96242 65.11 3.07442 64.53 3.29842 64.014C3.52642 63.498 3.85242 63.09 4.27642 62.79C4.70042 62.49 5.20842 62.34 5.80042 62.34C6.40842 62.34 6.92042 62.488 7.33642 62.784C7.75242 63.08 8.06642 63.486 8.27842 64.002C8.49442 64.514 8.60242 65.098 8.60242 65.754C8.60242 66.398 8.49642 66.98 8.28442 67.5C8.07242 68.016 7.76042 68.426 7.34842 68.73C6.93642 69.03 6.43242 69.18 5.83642 69.18ZM5.92642 68.358C6.38642 68.358 6.76642 68.246 7.06642 68.022C7.36642 67.798 7.59042 67.49 7.73842 67.098C7.88642 66.702 7.96042 66.254 7.96042 65.754C7.96042 65.246 7.88642 64.798 7.73842 64.41C7.59042 64.018 7.36642 63.712 7.06642 63.492C6.77042 63.272 6.39642 63.162 5.94442 63.162C5.48042 63.162 5.09642 63.276 4.79242 63.504C4.48842 63.732 4.26242 64.042 4.11442 64.434C3.97042 64.826 3.89842 65.266 3.89842 65.754C3.89842 66.246 3.97242 66.69 4.12042 67.086C4.27242 67.478 4.49842 67.788 4.79842 68.016C5.09842 68.244 5.47442 68.358 5.92642 68.358ZM7.96042 69V64.122H7.86442V60.36H8.75242V69H7.96042ZM10.4357 62.88L10.4897 62.442C10.6497 62.454 10.7657 62.422 10.8377 62.346C10.9097 62.27 10.9537 62.168 10.9697 62.04C10.9857 61.912 10.9897 61.774 10.9817 61.626H10.4357V60.36H11.4617V61.866C11.4617 62.234 11.3677 62.51 11.1797 62.694C10.9957 62.878 10.7477 62.94 10.4357 62.88ZM13.5791 61.29V60.3H14.4611V61.29H13.5791ZM13.5791 69V62.52H14.4611V69H13.5791ZM20.9399 69V65.694C20.9399 65.334 20.9059 65.004 20.8379 64.704C20.7699 64.4 20.6599 64.136 20.5079 63.912C20.3599 63.684 20.1659 63.508 19.9259 63.384C19.6899 63.26 19.4019 63.198 19.0619 63.198C18.7499 63.198 18.4739 63.252 18.2339 63.36C17.9979 63.468 17.7979 63.624 17.6339 63.828C17.4739 64.028 17.3519 64.272 17.2679 64.56C17.1839 64.848 17.1419 65.176 17.1419 65.544L16.5179 65.406C16.5179 64.742 16.6339 64.184 16.8659 63.732C17.0979 63.28 17.4179 62.938 17.8259 62.706C18.2339 62.474 18.7019 62.358 19.2299 62.358C19.6179 62.358 19.9559 62.418 20.2439 62.538C20.5359 62.658 20.7819 62.82 20.9819 63.024C21.1859 63.228 21.3499 63.462 21.4739 63.726C21.5979 63.986 21.6879 64.264 21.7439 64.56C21.7999 64.852 21.8279 65.144 21.8279 65.436V69H20.9399ZM16.2539 69V62.52H17.0519V64.116H17.1419V69H16.2539ZM26.9129 69C26.5489 69.076 26.1889 69.106 25.8329 69.09C25.4809 69.074 25.1649 68.998 24.8849 68.862C24.6089 68.726 24.3989 68.514 24.2549 68.226C24.1389 67.986 24.0749 67.744 24.0629 67.5C24.0549 67.252 24.0509 66.97 24.0509 66.654V60.72H24.9269V66.618C24.9269 66.89 24.9289 67.118 24.9329 67.302C24.9409 67.482 24.9829 67.642 25.0589 67.782C25.2029 68.05 25.4309 68.21 25.7429 68.262C26.0589 68.314 26.4489 68.302 26.9129 68.226V69ZM22.6649 63.276V62.52H26.9129V63.276H22.6649ZM31.4056 61.5H30.6496L31.3636 59.64H32.1196L31.4056 61.5ZM30.9316 69.18C30.2996 69.18 29.7516 69.04 29.2876 68.76C28.8276 68.48 28.4696 68.086 28.2136 67.578C27.9576 67.07 27.8296 66.474 27.8296 65.79C27.8296 65.082 27.9556 64.47 28.2076 63.954C28.4596 63.438 28.8136 63.04 29.2696 62.76C29.7296 62.48 30.2716 62.34 30.8956 62.34C31.5356 62.34 32.0816 62.488 32.5336 62.784C32.9856 63.076 33.3276 63.496 33.5596 64.044C33.7916 64.592 33.8976 65.246 33.8776 66.006H32.9776V65.694C32.9616 64.854 32.7796 64.22 32.4316 63.792C32.0876 63.364 31.5836 63.15 30.9196 63.15C30.2236 63.15 29.6896 63.376 29.3176 63.828C28.9496 64.28 28.7656 64.924 28.7656 65.76C28.7656 66.576 28.9496 67.21 29.3176 67.662C29.6896 68.11 30.2156 68.334 30.8956 68.334C31.3596 68.334 31.7636 68.228 32.1076 68.016C32.4556 67.8 32.7296 67.49 32.9296 67.086L33.7516 67.404C33.4956 67.968 33.1176 68.406 32.6176 68.718C32.1216 69.026 31.5596 69.18 30.9316 69.18ZM28.4536 66.006V65.268H33.4036V66.006H28.4536ZM35.2091 69V62.52H36.0011V64.08L35.8451 63.876C35.9171 63.684 36.0111 63.508 36.1271 63.348C36.2431 63.184 36.3691 63.05 36.5051 62.946C36.6731 62.798 36.8691 62.686 37.0931 62.61C37.3171 62.53 37.5431 62.484 37.7711 62.472C37.9991 62.456 38.2071 62.472 38.3951 62.52V63.348C38.1591 63.288 37.9011 63.274 37.6211 63.306C37.3411 63.338 37.0831 63.45 36.8471 63.642C36.6311 63.81 36.4691 64.012 36.3611 64.248C36.2531 64.48 36.1811 64.728 36.1451 64.992C36.1091 65.252 36.0911 65.51 36.0911 65.766V69H35.2091ZM40.4514 61.5L41.8254 59.88H42.6414L44.0154 61.5H43.1154L42.2334 60.462L41.3514 61.5H40.4514ZM42.2754 69.18C41.6434 69.18 41.0954 69.04 40.6314 68.76C40.1714 68.48 39.8134 68.086 39.5574 67.578C39.3014 67.07 39.1734 66.474 39.1734 65.79C39.1734 65.082 39.2994 64.47 39.5514 63.954C39.8034 63.438 40.1574 63.04 40.6134 62.76C41.0734 62.48 41.6154 62.34 42.2394 62.34C42.8794 62.34 43.4254 62.488 43.8774 62.784C44.3294 63.076 44.6714 63.496 44.9034 64.044C45.1354 64.592 45.2414 65.246 45.2214 66.006H44.3214V65.694C44.3054 64.854 44.1234 64.22 43.7754 63.792C43.4314 63.364 42.9274 63.15 42.2634 63.15C41.5674 63.15 41.0334 63.376 40.6614 63.828C40.2934 64.28 40.1094 64.924 40.1094 65.76C40.1094 66.576 40.2934 67.21 40.6614 67.662C41.0334 68.11 41.5594 68.334 42.2394 68.334C42.7034 68.334 43.1074 68.228 43.4514 68.016C43.7994 67.8 44.0734 67.49 44.2734 67.086L45.0954 67.404C44.8394 67.968 44.4614 68.406 43.9614 68.718C43.4654 69.026 42.9034 69.18 42.2754 69.18ZM39.7974 66.006V65.268H44.7474V66.006H39.7974ZM50.0809 69C49.7169 69.076 49.3569 69.106 49.0009 69.09C48.6489 69.074 48.3329 68.998 48.0529 68.862C47.7769 68.726 47.5669 68.514 47.4229 68.226C47.3069 67.986 47.2429 67.744 47.2309 67.5C47.2229 67.252 47.2189 66.97 47.2189 66.654V60.72H48.0949V66.618C48.0949 66.89 48.0969 67.118 48.1009 67.302C48.1089 67.482 48.1509 67.642 48.2269 67.782C48.3709 68.05 48.5989 68.21 48.9109 68.262C49.2269 68.314 49.6169 68.302 50.0809 68.226V69ZM45.8329 63.276V62.52H50.0809V63.276H45.8329ZM10.0605 85.18C9.42852 85.18 8.88052 85.04 8.41652 84.76C7.95652 84.48 7.59852 84.086 7.34252 83.578C7.08652 83.07 6.95852 82.474 6.95852 81.79C6.95852 81.082 7.08452 80.47 7.33652 79.954C7.58852 79.438 7.94252 79.04 8.39852 78.76C8.85852 78.48 9.40052 78.34 10.0245 78.34C10.6645 78.34 11.2105 78.488 11.6625 78.784C12.1145 79.076 12.4565 79.496 12.6885 80.044C12.9205 80.592 13.0265 81.246 13.0065 82.006H12.1065V81.694C12.0905 80.854 11.9085 80.22 11.5605 79.792C11.2165 79.364 10.7125 79.15 10.0485 79.15C9.35252 79.15 8.81852 79.376 8.44652 79.828C8.07852 80.28 7.89452 80.924 7.89452 81.76C7.89452 82.576 8.07852 83.21 8.44652 83.662C8.81852 84.11 9.34452 84.334 10.0245 84.334C10.4885 84.334 10.8925 84.228 11.2365 84.016C11.5845 83.8 11.8585 83.49 12.0585 83.086L12.8805 83.404C12.6245 83.968 12.2465 84.406 11.7465 84.718C11.2505 85.026 10.6885 85.18 10.0605 85.18ZM7.58252 82.006V81.268H12.5325V82.006H7.58252ZM18.8423 85V81.694C18.8423 81.334 18.8083 81.004 18.7403 80.704C18.6723 80.4 18.5623 80.136 18.4103 79.912C18.2623 79.684 18.0683 79.508 17.8283 79.384C17.5923 79.26 17.3043 79.198 16.9643 79.198C16.6523 79.198 16.3763 79.252 16.1363 79.36C15.9003 79.468 15.7003 79.624 15.5363 79.828C15.3763 80.028 15.2543 80.272 15.1703 80.56C15.0863 80.848 15.0443 81.176 15.0443 81.544L14.4203 81.406C14.4203 80.742 14.5363 80.184 14.7683 79.732C15.0003 79.28 15.3203 78.938 15.7283 78.706C16.1363 78.474 16.6043 78.358 17.1323 78.358C17.5203 78.358 17.8583 78.418 18.1463 78.538C18.4383 78.658 18.6843 78.82 18.8843 79.024C19.0883 79.228 19.2523 79.462 19.3763 79.726C19.5003 79.986 19.5903 80.264 19.6463 80.56C19.7023 80.852 19.7303 81.144 19.7303 81.436V85H18.8423ZM14.1563 85V78.52H14.9543V80.116H15.0443V85H14.1563ZM23.0393 85L20.6873 78.52H21.5813L23.4953 83.848L25.3973 78.52H26.3033L23.9513 85H23.0393ZM29.8526 85.18C29.2086 85.18 28.6586 85.034 28.2026 84.742C27.7466 84.45 27.3966 84.046 27.1526 83.53C26.9086 83.014 26.7866 82.422 26.7866 81.754C26.7866 81.074 26.9106 80.478 27.1586 79.966C27.4066 79.454 27.7586 79.056 28.2146 78.772C28.6746 78.484 29.2206 78.34 29.8526 78.34C30.5006 78.34 31.0526 78.486 31.5086 78.778C31.9686 79.066 32.3186 79.468 32.5586 79.984C32.8026 80.496 32.9246 81.086 32.9246 81.754C32.9246 82.434 32.8026 83.032 32.5586 83.548C32.3146 84.06 31.9626 84.46 31.5026 84.748C31.0426 85.036 30.4926 85.18 29.8526 85.18ZM29.8526 84.334C30.5726 84.334 31.1086 84.096 31.4606 83.62C31.8126 83.14 31.9886 82.518 31.9886 81.754C31.9886 80.97 31.8106 80.346 31.4546 79.882C31.1026 79.418 30.5686 79.186 29.8526 79.186C29.3686 79.186 28.9686 79.296 28.6526 79.516C28.3406 79.732 28.1066 80.034 27.9506 80.422C27.7986 80.806 27.7226 81.25 27.7226 81.754C27.7226 82.534 27.9026 83.16 28.2626 83.632C28.6226 84.1 29.1526 84.334 29.8526 84.334ZM34.9378 87.88L36.1918 84.478L36.2098 85.486L33.3718 78.52H34.3078L36.6358 84.346H36.2518L38.3998 78.52H39.2998L35.8198 87.88H34.9378ZM43.558 77.5H42.802L43.516 75.64H44.272L43.558 77.5ZM43.084 85.18C42.452 85.18 41.904 85.04 41.44 84.76C40.98 84.48 40.622 84.086 40.366 83.578C40.11 83.07 39.982 82.474 39.982 81.79C39.982 81.082 40.108 80.47 40.36 79.954C40.612 79.438 40.966 79.04 41.422 78.76C41.882 78.48 42.424 78.34 43.048 78.34C43.688 78.34 44.234 78.488 44.686 78.784C45.138 79.076 45.48 79.496 45.712 80.044C45.944 80.592 46.05 81.246 46.03 82.006H45.13V81.694C45.114 80.854 44.932 80.22 44.584 79.792C44.24 79.364 43.736 79.15 43.072 79.15C42.376 79.15 41.842 79.376 41.47 79.828C41.102 80.28 40.918 80.924 40.918 81.76C40.918 82.576 41.102 83.21 41.47 83.662C41.842 84.11 42.368 84.334 43.048 84.334C43.512 84.334 43.916 84.228 44.26 84.016C44.608 83.8 44.882 83.49 45.082 83.086L45.904 83.404C45.648 83.968 45.27 84.406 44.77 84.718C44.274 85.026 43.712 85.18 43.084 85.18ZM40.606 82.006V81.268H45.556V82.006H40.606Z" fill="#96ED88"/>
</svg>
