<svg width="54" height="44" viewBox="0 0 54 44" fill="none" xmlns="http://www.w3.org/2000/svg">
<path d="M36.7091 18.6656C34.5382 18.6656 33.6507 17.1304 34.7301 15.2474C35.3538 14.1559 34.982 12.7646 33.8906 12.1409L31.8156 10.9535C30.8681 10.3898 29.6447 10.7256 29.081 11.6731L28.949 11.901C27.8696 13.7841 26.0945 13.7841 25.003 11.901L24.8711 11.6731C24.3313 10.7256 23.1079 10.3898 22.1604 10.9535L20.0855 12.1409C18.994 12.7646 18.6222 14.1679 19.2459 15.2593C20.3373 17.1304 19.4498 18.6656 17.2789 18.6656C16.0315 18.6656 15 19.6851 15 20.9445V23.0554C15 24.3028 16.0195 25.3343 17.2789 25.3343C19.4498 25.3343 20.3373 26.8695 19.2459 28.7526C18.6222 29.8441 18.994 31.2354 20.0855 31.859L22.1604 33.0465C23.1079 33.6102 24.3313 33.2743 24.8951 32.3268L25.027 32.0989C26.1064 30.2159 27.8816 30.2159 28.973 32.0989L29.1049 32.3268C29.6687 33.2743 30.8921 33.6102 31.8396 33.0465L33.9145 31.859C35.006 31.2354 35.3778 29.8321 34.7541 28.7526C33.6627 26.8695 34.5502 25.3343 36.7211 25.3343C37.9685 25.3343 39 24.3148 39 23.0554V20.9445C38.988 19.6971 37.9685 18.6656 36.7091 18.6656ZM26.994 25.898C24.8471 25.898 23.096 24.1469 23.096 22C23.096 19.853 24.8471 18.1019 26.994 18.1019C29.1409 18.1019 30.8921 19.853 30.8921 22C30.8921 24.1469 29.1409 25.898 26.994 25.898Z" fill="#E2E2E2"/>
</svg>
