<svg width="144" height="28" viewBox="0 0 144 28" fill="none" xmlns="http://www.w3.org/2000/svg">
<path d="M9.09376 7.53735C10.7094 7.53735 12.0942 7.79125 13.2252 8.3221C14.3561 8.85295 15.2332 9.59153 15.8333 10.584C16.4334 11.5534 16.7334 12.7536 16.7334 14.1615C16.7334 15.5694 16.4334 16.7465 15.8333 17.739C15.2332 18.7084 14.3561 19.47 13.2252 20.0009C12.0942 20.5317 10.7094 20.7856 9.09376 20.7856H5.17006V27.3867H0V7.58352H9.09376V7.53735ZM8.28594 16.8619C9.37073 16.8619 10.1786 16.6311 10.7325 16.1926C11.2864 15.731 11.5634 15.0616 11.5634 14.1384C11.5634 13.2152 11.2864 12.5228 10.7325 12.0842C10.1786 11.6226 9.37073 11.4149 8.28594 11.4149H5.17006V16.885H8.28594V16.8619Z" fill="white"/>
<path d="M69.1029 12.1075V15.7312H56.9395V12.1075H69.1029ZM64.6253 7.32983V21.7552C64.6253 22.4707 64.8099 23.0016 65.1561 23.3016C65.5024 23.6017 65.987 23.7632 66.6102 23.7632C67.0949 23.7632 67.5104 23.7171 67.8566 23.6017C68.2028 23.4863 68.5259 23.3247 68.8029 23.117L69.3337 26.2559C68.826 26.6252 68.2028 26.9022 67.4411 27.0868C66.6795 27.2946 65.8947 27.3869 65.11 27.3869C63.979 27.3869 62.9866 27.2253 62.1557 26.9022C61.3248 26.5791 60.6785 26.0713 60.24 25.3789C59.7784 24.6864 59.5476 23.7401 59.5245 22.5861V8.73775L64.6253 7.32983Z" fill="white"/>
<path d="M77.4577 11.8075C78.981 11.8075 80.2504 12.0152 81.2429 12.4537C82.2584 12.8923 83.0432 13.4462 83.6202 14.1617C84.1972 14.8772 84.5434 15.6389 84.6819 16.4467L79.9735 18.0162C79.835 17.1622 79.5811 16.5159 79.2118 16.0774C78.8425 15.6389 78.3117 15.4312 77.5962 15.4312C76.9499 15.4312 76.419 15.5696 75.9805 15.8697C75.542 16.1697 75.2189 16.6083 75.0111 17.2545C74.7803 17.8777 74.688 18.6855 74.688 19.678C74.688 20.6474 74.8034 21.4552 75.0573 22.0553C75.2881 22.6554 75.6343 23.0939 76.0728 23.3709C76.5114 23.6479 77.0422 23.7863 77.6423 23.7863C78.1501 23.7863 78.5655 23.694 78.8887 23.5094C79.2118 23.3247 79.4888 23.0478 79.7196 22.6785C79.9504 22.3092 80.0889 21.8707 80.135 21.3629L84.705 22.817C84.5665 23.694 84.1972 24.4788 83.574 25.1712C82.9739 25.8636 82.1661 26.4175 81.1506 26.8099C80.1581 27.2023 78.981 27.41 77.6423 27.41C76.0036 27.41 74.5726 27.11 73.3493 26.4868C72.126 25.8867 71.1797 24.9865 70.5335 23.8094C69.8641 22.6323 69.541 21.2244 69.541 19.5857C69.541 17.9469 69.8641 16.539 70.5335 15.3619C71.2028 14.1848 72.126 13.3077 73.3032 12.6846C74.5033 12.1075 75.8882 11.8075 77.4577 11.8075Z" fill="white"/>
<path d="M86.0684 27.3407V5.96802H91.1692V15.0618C91.6077 14.0693 92.2309 13.3076 93.0618 12.7999C93.8927 12.2921 94.839 12.0382 95.9007 12.0382C96.9393 12.0382 97.8395 12.246 98.6242 12.6383C99.3859 13.0307 100.009 13.6308 100.448 14.4155C100.886 15.2003 101.117 16.1696 101.117 17.3468V27.3407H96.0161V18.7547C96.0161 17.6699 95.8315 16.9313 95.4391 16.5159C95.0467 16.1004 94.5389 15.8927 93.8927 15.8927C93.408 15.8927 92.9695 16.0081 92.5309 16.262C92.1155 16.4928 91.7923 16.8852 91.5385 17.3929C91.3076 17.9238 91.1692 18.5931 91.1692 19.424V27.3176H86.0684V27.3407Z" fill="white"/>
<path d="M126.735 7.53735V27.3405H122.165V18.2468L122.327 12.1535H122.257L117.364 27.3405H113.187L108.294 12.1535H108.248L108.386 18.2468V27.3405H103.793V7.53735H111.133L114.248 17.6236L115.356 21.8243H115.426L116.557 17.6467L119.649 7.53735H126.735Z" fill="white"/>
<path d="M136.822 27.41C135.16 27.41 133.729 27.11 132.506 26.4868C131.305 25.8636 130.359 24.9865 129.69 23.8094C129.02 22.6554 128.697 21.2475 128.697 19.6087C128.697 17.97 129.02 16.5621 129.69 15.4081C130.359 14.254 131.282 13.3539 132.459 12.7307C133.66 12.1075 135.021 11.8075 136.545 11.8075C138.114 11.8075 139.476 12.1075 140.584 12.7307C141.692 13.3308 142.546 14.1848 143.123 15.2465C143.7 16.3082 144 17.5315 144 18.9163C144 19.2856 144 19.6318 143.977 20.0011C143.954 20.3704 143.93 20.6705 143.884 20.9013H132.021V18.1778H141.646L139.222 19.101C139.222 17.9008 139.014 16.9776 138.576 16.3313C138.137 15.685 137.491 15.3619 136.591 15.3619C135.945 15.3619 135.414 15.5004 134.952 15.8235C134.514 16.1236 134.167 16.5852 133.937 17.2314C133.706 17.8777 133.59 18.6855 133.59 19.7011C133.59 20.6705 133.729 21.4783 133.983 22.0784C134.237 22.6785 134.606 23.117 135.091 23.394C135.575 23.6709 136.152 23.8094 136.822 23.8094C137.583 23.8094 138.183 23.6479 138.645 23.3478C139.107 23.0478 139.43 22.6323 139.661 22.0784L143.746 23.4401C143.469 24.2941 142.984 25.0327 142.292 25.6097C141.599 26.2098 140.792 26.6483 139.822 26.9484C138.853 27.2484 137.86 27.41 136.822 27.41Z" fill="white"/>
<path d="M51.3535 0.45166H22.1565C20.1485 0.45166 18.5098 1.67493 18.5098 3.15209V27.5483L25.8032 22.1244H51.3535C53.3615 22.1244 55.0002 20.9011 55.0002 19.4239V3.15209C55.0002 1.67493 53.3615 0.45166 51.3535 0.45166Z" fill="#F37332"/>
<path d="M30.1202 18.016C28.6661 18.016 27.3967 17.7391 26.335 17.2082C25.2733 16.6543 24.4424 15.8695 23.8653 14.854C23.2883 13.8385 22.9883 12.5921 22.9883 11.1611C22.9883 9.70702 23.2883 8.48375 23.8653 7.4682C24.4424 6.45265 25.2502 5.66791 26.3119 5.11397C27.3505 4.56004 28.5507 4.30615 29.9125 4.30615C31.2973 4.30615 32.4975 4.58312 33.4669 5.11397C34.4363 5.64483 35.1979 6.38342 35.7057 7.32972C36.2135 8.27603 36.4674 9.36082 36.4674 10.561C36.4674 10.8841 36.4674 11.1842 36.4443 11.5073C36.4212 11.8304 36.3981 12.0843 36.375 12.2921H25.9195V9.89167H34.3901L32.2436 10.6995C32.2436 9.63778 32.059 8.82996 31.6666 8.27602C31.2973 7.72209 30.6972 7.42204 29.9125 7.42204C29.3585 7.42204 28.8738 7.56052 28.4815 7.81441C28.0891 8.0683 27.789 8.48375 27.5813 9.06077C27.3736 9.6147 27.2813 10.3533 27.2813 11.2303C27.2813 12.0843 27.3967 12.7998 27.6275 13.3307C27.8583 13.8615 28.1814 14.2539 28.5969 14.4847C29.0123 14.7155 29.5201 14.8309 30.1202 14.8309C30.7895 14.8309 31.3204 14.6924 31.7128 14.4386C32.1051 14.1847 32.4052 13.8154 32.5898 13.3307L36.1904 14.5078C35.9365 15.2695 35.5211 15.8926 34.921 16.4235C34.3209 16.9313 33.5823 17.3236 32.7514 17.6006C31.8974 17.8776 31.0203 18.016 30.1202 18.016Z" fill="white"/>
<path d="M44.3155 18.016C42.8614 18.016 41.592 17.7391 40.5303 17.2082C39.4686 16.6543 38.6377 15.8695 38.0607 14.854C37.4836 13.8385 37.1836 12.5921 37.1836 11.1611C37.1836 9.70702 37.4836 8.48375 38.0607 7.4682C38.6377 6.45265 39.4455 5.66791 40.5072 5.11397C41.5458 4.56004 42.746 4.30615 44.1078 4.30615C45.4926 4.30615 46.6928 4.58312 47.6622 5.11397C48.6316 5.64483 49.3932 6.38342 49.901 7.32972C50.4088 8.27603 50.6627 9.36082 50.6627 10.561C50.6627 10.8841 50.6627 11.1842 50.6396 11.5073C50.6165 11.8304 50.5934 12.0843 50.5704 12.2921H40.1148V9.89167H48.5854L46.4389 10.6995C46.4389 9.63778 46.2543 8.82996 45.8619 8.27602C45.4926 7.72209 44.8925 7.42204 44.1078 7.42204C43.5538 7.42204 43.0691 7.56052 42.6768 7.81441C42.2844 8.0683 41.9844 8.48375 41.7766 9.06077C41.5689 9.6147 41.4766 10.3533 41.4766 11.2303C41.4766 12.0843 41.592 12.7998 41.8228 13.3307C42.0536 13.8615 42.3767 14.2539 42.7922 14.4847C43.2076 14.7155 43.7154 14.8309 44.3155 14.8309C44.9848 14.8309 45.5157 14.6924 45.9081 14.4386C46.3004 14.1847 46.6005 13.8154 46.7851 13.3307L50.3857 14.5078C50.1318 15.2695 49.7164 15.8926 49.1163 16.4235C48.5162 16.9313 47.7776 17.3236 46.9467 17.6006C46.1158 17.8776 45.2387 18.016 44.3155 18.016Z" fill="white"/>
</svg>
