<svg width="54" height="44" viewBox="0 0 54 44" fill="none" xmlns="http://www.w3.org/2000/svg">
<path d="M21 21.4H30.6V31H21V21.4Z" fill="white"/>
<path d="M17.4 14.8H36.6V17.2H17.4V14.8ZM19.8 10H34.2V12.4H19.8V10ZM36.6 19.6H17.4C16.7635 19.6 16.153 19.8529 15.7029 20.3029C15.2529 20.753 15 21.3635 15 22V31.6C15 32.2365 15.2529 32.847 15.7029 33.2971C16.153 33.7471 16.7635 34 17.4 34H36.6C37.2365 34 37.847 33.7471 38.2971 33.2971C38.7471 32.847 39 32.2365 39 31.6V22C39 21.3635 38.7471 20.753 38.2971 20.3029C37.847 19.8529 37.2365 19.6 36.6 19.6ZM30.6 28H28.2V30.4H25.8V28H23.4V25.6H25.8V23.2H28.2V25.6H30.6V28Z" fill="#F37332"/>
</svg>
