<svg width="54" height="42" viewBox="0 0 54 42" fill="none" xmlns="http://www.w3.org/2000/svg">
<path d="M19.1911 10.2229C20.1826 10.2229 20.9873 11.0276 20.9873 12.0191V29.9809C20.9873 30.9724 20.1826 31.7771 19.1911 31.7771H16.7962C15.8047 31.7771 15 30.9724 15 29.9809V12.0191C15 11.0276 15.8047 10.2229 16.7962 10.2229H19.1911ZM26.3758 10.2229C27.3673 10.2229 28.172 11.0276 28.172 12.0191V29.9809C28.172 30.9724 27.3673 31.7771 26.3758 31.7771H23.9809C22.9894 31.7771 22.1847 30.9724 22.1847 29.9809V12.0191C22.1847 11.0276 22.9894 10.2229 23.9809 10.2229H26.3758ZM35.0945 13.9635L38.9431 28.9544C39.1898 29.9148 38.6114 30.8943 37.6499 31.141L35.4034 31.717C34.4419 31.9637 33.4636 31.3853 33.2169 30.4237L29.3683 15.4352C29.1216 14.4736 29.7 13.4953 30.6615 13.2486L32.9079 12.6703C33.8695 12.4248 34.8478 13.0043 35.0945 13.9635Z" fill="#E2E2E2"/>
<rect x="0.5" y="0.7229" width="53" height="40.5542" rx="19.5" stroke="white"/>
</svg>
