<svg width="99" height="99" viewBox="0 0 99 99" fill="none" xmlns="http://www.w3.org/2000/svg">
<path d="M3.09375 55.6875C1.39219 55.6875 0 57.0797 0 58.7812V64.9688C0 66.6703 1.39219 68.0625 3.09375 68.0625H24.75V55.6875H3.09375ZM97.6465 20.3027L78.7166 1.35352C77.8465 0.483398 76.667 0 75.4295 0H74.25V24.75H99V23.5705C99 22.3523 98.5166 21.1729 97.6465 20.3027ZM68.0625 26.2969V0H29.3906C26.8189 0 24.75 2.06895 24.75 4.64062V55.6875H49.5V43.0805C49.5 40.3154 52.8451 38.9426 54.798 40.8955L73.2832 59.5547C74.5594 60.8502 74.5594 62.9191 73.2832 64.1953L54.7787 82.8352C52.8258 84.7881 49.4807 83.4152 49.4807 80.6502V68.0625H24.75V94.3594C24.75 96.9311 26.8189 99 29.3906 99H94.3594C96.9311 99 99 96.9311 99 94.3594V30.9375H72.7031C70.1508 30.9375 68.0625 28.8492 68.0625 26.2969Z" fill="#CDCDCD"/>
</svg>
